<svg id="Layer_1" data-name="Layer 1" xmlns="http://www.w3.org/2000/svg" xmlns:xlink="http://www.w3.org/1999/xlink" viewBox="0 0 890.68 1000"><defs><style>.cls-1{fill:none;}.cls-2{clip-path:url(#clip-path);}.cls-3{fill:#922785;}.cls-4{fill:#1d1d1b;}</style><clipPath id="clip-path" transform="translate(-54.66 0)"><rect class="cls-1" width="1000" height="1000"/></clipPath></defs><g class="cls-2"><g class="cls-2"><path class="cls-3" d="M54.66,0c81.58,94.81,173,112.25,264.54,113.85a213.53,213.53,0,0,1,13.18,41.27c2,9.52,10.35,15.33,18.56,13s13.22-12,11.19-21.52a271.85,271.85,0,0,0-9-32.73c12.27-.18,24.53-.54,37-.71,34.81-1.07,70.54-1.78,106,.71a296,296,0,0,1,37,62.79c2.55,6,7.86,9.85,13.65,9.79a12.45,12.45,0,0,0,6.9-2c7.52-4.44,10.53-15.09,6.75-23.84a339.24,339.24,0,0,0-21.78-42,371.84,371.84,0,0,1,133,50.52c28,47,43.22,102.51,43.86,159.57,0,9.82,6.87,17.79,15.33,17.79s15.34-8,15.34-17.79a352.27,352.27,0,0,0-21.62-120.61C770,247.92,806.91,299.59,832.17,359a250.52,250.52,0,0,1-22.24,84.49,20,20,0,0,0-2.27,13.32A17.87,17.87,0,0,0,814.22,468a13.07,13.07,0,0,0,8.44,3c5.13,0,9.9-3,12.73-8a181,181,0,0,0,17.17-45c.46,1.6,1.07,3.2,1.38,4.8a458.38,458.38,0,0,1-7.05,249.22,111.39,111.39,0,0,1-5.37,14.23,7.35,7.35,0,0,0-.61-1.6l-6.6-15.48C741.53,383.53,623.14,342.61,473,290.85c-89.38-27.28-175.43-67.57-256.1-119.9-7.37-4.91-16.78-2-21,6.58s-1.7,19.46,5.67,24.37c82.77,53.66,171,95,262.7,123.1,147.53,50.88,254.11,87.7,341.36,356.84,3.53,14.41,6.6,28.46,9.36,42.16a89.36,89.36,0,0,1-41,22.77c-81.74,18.17-165.64-15.51-220.21-88.41A183.62,183.62,0,0,0,604.59,666a141.24,141.24,0,0,0,71.61-18.85c4.93-2.87,8.18-8.56,8.51-14.94s-2.3-12.49-6.9-16a13.63,13.63,0,0,0-15.41-1.07c-48.92,28.46-103.21,12.09-141.54-7.48-21.32-37-37.42-64.57-50.92-85.38a139.78,139.78,0,0,0,68.25-17.61c6.88-4.81,9.4-15,5.77-23.27s-12.16-12-19.58-8.4a135.35,135.35,0,0,1-80.81,12.63A293.18,293.18,0,0,0,366,423.37c-23.46-14.94-53.83-34.51-96.46-65.1a125.9,125.9,0,0,0,24.84-14.77c6.17-5.76,7.54-16,3.17-23.68s-13.06-10.19-20-5.85a90.05,90.05,0,0,1-43.55,18.5,6.92,6.92,0,0,0-1.07-.89C82.88,219.69,57.57,71.51,54.66,0Z" transform="translate(-54.66 0)"/><path class="cls-4" d="M761.32,986.92c0,9.82,6.86,13.07,15.33,13.07H930a11.23,11.23,0,0,0,5.82-1.42c5.76-2.68,9.53-4.45,9.51-11.65-3.4-79.78-25.51-157-64-223.25a560.19,560.19,0,0,1-39.87-77.38,111.52,111.52,0,0,1-6.29,12.27A113.74,113.74,0,0,1,815,724a1140,1140,0,0,1,23,174.69,19.32,19.32,0,0,0,4.45,11.92l50.45,63.24H776.65c-8.47,0-15.33,3.25-15.33,13.07m148.6-48.56-41.56-48.21q-3.08-52.42-10.89-104.24c25.89,46.36,43.7,98.15,52.45,152.45" transform="translate(-54.66 0)"/><path class="cls-4" d="M420.76,986.92c0,9.82,6.86,13.07,15.33,13.07H694.35c8.47,0,15.34-3.25,15.34-13.07s-6.87-13.07-15.34-13.07H436.09c-8.47,0-15.33,3.25-15.33,13.07" transform="translate(-54.66 0)"/></g></g></svg>